<?xml version="1.0" encoding="UTF-8" standalone="no"?>
<!DOCTYPE svg PUBLIC "-//W3C//DTD SVG 1.1//EN" "http://www.w3.org/Graphics/SVG/1.1/DTD/svg11.dtd">
<svg width="100%" height="100%" viewBox="0 0 100 100" version="1.1" xmlns="http://www.w3.org/2000/svg" xmlns:xlink="http://www.w3.org/1999/xlink" xml:space="preserve" xmlns:serif="http://www.serif.com/" style="fill-rule:evenodd;clip-rule:evenodd;stroke-linecap:round;stroke-linejoin:round;stroke-miterlimit:1.5;">
    <g>
        <g transform="matrix(1.23206,0,0,1.11475,-4.74889,0.393443)">
            <rect x="14" y="14" width="60.873" height="61" style="fill:none;stroke:black;stroke-width:5.11px;"/>
        </g>
        <g transform="matrix(1.23206,0,0,-0.0163934,-4.74889,95)">
            <rect x="14" y="14" width="60.873" height="61"/>
            <path d="M75.112,257.119L75.349,254.484L75.58,250.12L75.805,244.07L76.021,236.392L76.226,227.159L76.418,216.461L76.595,204.4L76.756,191.094L76.898,176.669L77.021,161.266L77.123,145.031L77.204,128.122L77.262,110.701L77.297,92.937L77.308,75L77.308,14L77.297,-3.937L77.262,-21.701L77.204,-39.122L77.123,-56.031L77.021,-72.266L76.898,-87.669L76.756,-102.094L76.595,-115.4L76.418,-127.461L76.226,-138.159L76.021,-147.392L75.805,-155.07L75.58,-161.12L75.349,-165.484L75.112,-168.119L74.873,-169L14,-169L13.761,-168.119L13.525,-165.484L13.293,-161.12L13.068,-155.07L12.852,-147.392L12.647,-138.159L12.455,-127.461L12.278,-115.4L12.118,-102.094L11.975,-87.669L11.853,-72.266L11.75,-56.031L11.67,-39.122L11.612,-21.701L11.577,-3.937L11.565,14L11.565,75L11.577,92.937L11.612,110.701L11.67,128.122L11.75,145.031L11.853,161.266L11.975,176.669L12.118,191.094L12.278,204.4L12.455,216.461L12.647,227.159L12.852,236.392L13.068,244.07L13.293,250.12L13.525,254.484L13.761,257.119L14,258L74.873,258L75.112,257.119ZM14,75L14,14L74.873,14L74.873,75L14,75Z"/>
        </g>
        <g transform="matrix(1.23206,0,0,-0.0163934,-4.74889,6.22951)">
            <rect x="14" y="14" width="60.873" height="61"/>
            <path d="M75.112,257.119L75.349,254.484L75.58,250.12L75.805,244.07L76.021,236.392L76.226,227.159L76.418,216.461L76.595,204.401L76.756,191.094L76.898,176.669L77.021,161.266L77.123,145.031L77.204,128.122L77.262,110.702L77.297,92.937L77.308,75L77.308,14L77.297,-3.937L77.262,-21.702L77.204,-39.122L77.123,-56.031L77.021,-72.266L76.898,-87.669L76.756,-102.094L76.595,-115.401L76.418,-127.461L76.226,-138.159L76.021,-147.392L75.805,-155.07L75.58,-161.12L75.349,-165.484L75.112,-168.119L74.873,-169L14,-169L13.761,-168.119L13.525,-165.484L13.293,-161.12L13.068,-155.07L12.852,-147.392L12.647,-138.159L12.455,-127.461L12.278,-115.401L12.118,-102.094L11.975,-87.669L11.853,-72.266L11.75,-56.031L11.67,-39.122L11.612,-21.702L11.577,-3.937L11.565,14L11.565,75L11.577,92.937L11.612,110.702L11.67,128.122L11.75,145.031L11.853,161.266L11.975,176.669L12.118,191.094L12.278,204.401L12.455,216.461L12.647,227.159L12.852,236.392L13.068,244.07L13.293,250.12L13.525,254.484L13.761,257.119L14,258L74.873,258L75.112,257.119ZM14,75L14,14L74.873,14L74.873,75L14,75Z"/>
        </g>
    </g>
</svg>
